<?xml version="1.0" encoding="UTF-8"?>
<svg xmlns="http://www.w3.org/2000/svg" xmlns:xlink="http://www.w3.org/1999/xlink" width="3750" height="3750" viewBox="0 0 3750 3750">
<rect x="-375" y="-375" width="4500" height="4500" fill="rgb(100%, 100%, 100%)" fill-opacity="1"/>
<path fill-rule="nonzero" fill="rgb(79.296875%, 24.705505%, 24.705505%)" fill-opacity="1" d="M 3323.480469 1875 C 3323.480469 2259.148438 3170.878906 2627.578125 2899.230469 2899.214844 C 2627.589844 3170.855469 2259.171875 3323.460938 1875.019531 3323.460938 C 1490.859375 3323.460938 1122.429688 3170.855469 850.792969 2899.214844 C 579.15625 2627.578125 426.550781 2259.148438 426.550781 1875 C 426.550781 1490.839844 579.15625 1122.410156 850.792969 850.78125 C 1122.429688 579.140625 1490.859375 426.53125 1875.019531 426.53125 C 2259.171875 426.53125 2627.589844 579.140625 2899.230469 850.78125 C 3170.878906 1122.410156 3323.480469 1490.839844 3323.480469 1875 Z M 3323.480469 1875 "/>
<path fill-rule="nonzero" fill="rgb(86.326599%, 50.976562%, 50.976562%)" fill-opacity="1" d="M 1887.210938 816.019531 C 1881.089844 816.078125 1874.898438 816.230469 1868.578125 816.511719 C 1721.320312 822.640625 1590.789062 884.21875 1486.929688 961.179688 C 1348.71875 1063.578125 1254.699219 1188.890625 1221.039062 1285.671875 C 1185.039062 1389.160156 1203.140625 1528.371094 1221.160156 1651.898438 C 1223.699219 1669.339844 1226.46875 1685.71875 1229.148438 1701.941406 C 1225.589844 1718.339844 1185.339844 1903.449219 1142.25 2107.179688 C 1128.46875 2172.351562 1115.21875 2236.488281 1102.730469 2296.910156 C 1081.210938 2308.78125 994.113281 2356.398438 885.179688 2424.660156 C 824.128906 2462.921875 762.125 2504.121094 711.621094 2543.109375 C 686.433594 2562.558594 663.976562 2581.371094 645.132812 2600.648438 C 640.375 2605.519531 635.570312 2610.578125 630.878906 2615.941406 C 891.964844 3054.515625 1364.601562 3323.300781 1875 3323.472656 C 2172.441406 3323.40625 2462.640625 3231.773438 2706.191406 3061.027344 C 2949.730469 2890.28125 3134.808594 2648.691406 3236.269531 2369.101562 C 3233.230469 2367.148438 3230.050781 2365.351562 3226.648438 2363.878906 L 3226.890625 2363.878906 C 3226.890625 2363.878906 3153.339844 2331.929688 3076.648438 2298.371094 C 3038.320312 2281.609375 2999.269531 2264.339844 2968.25 2250.621094 C 2944.191406 2239.980469 2929.351562 2233.359375 2920.628906 2229.359375 C 2919.140625 2227.441406 2918.339844 2226.5 2916.390625 2223.820312 C 2915.488281 2222.578125 2914.179688 2220.570312 2913.140625 2219.101562 L 2903.601562 2143.929688 C 2897.789062 2098.28125 2875.519531 2056.480469 2847.988281 2001.921875 C 2820.089844 1946.640625 2784.800781 1883.160156 2749.980469 1822.550781 C 2683.828125 1707.390625 2625.179688 1612.808594 2619.21875 1603.179688 C 2620.898438 1257.058594 2407.128906 918.839844 2020.460938 830.660156 C 1975.289062 820.359375 1930.660156 815.640625 1887.269531 816.019531 Z M 1541.238281 2168.359375 C 1541.480469 2168.828125 1541.800781 2169.429688 1542.011719 2169.910156 C 1541.699219 2169.980469 1541.449219 2170.089844 1541.210938 2170.171875 C 1541.21875 2169.859375 1541.230469 2168.648438 1541.238281 2168.359375 Z M 3198 2394.230469 C 3199.789062 2394.160156 3201.601562 2394.238281 3203.390625 2394.46875 L 3190.699219 2404.441406 C 3189.730469 2404.019531 3182.140625 2400.710938 3180.601562 2400.039062 C 3185.789062 2396.589844 3191.820312 2394.480469 3198 2394.230469 Z M 3198 2394.230469 "/>
<path fill-rule="nonzero" fill="rgb(98.826599%, 75.78125%, 64.256287%)" fill-opacity="1" d="M 1874.019531 1360.769531 C 1795.949219 1370.371094 1716 1388.171875 1646.488281 1425.800781 C 1591.449219 1495.710938 1564.289062 1583.679688 1529.390625 1664.730469 C 1521.230469 1685.25 1508.019531 1716.519531 1532.019531 1731.78125 C 1481.039062 1740.960938 1484.691406 1803.828125 1473.53125 1843.550781 C 1467.5 1880.121094 1462.949219 1938.921875 1512.96875 1944.480469 C 1603.101562 1966.570312 1691.570312 2002.601562 1784.148438 2011.210938 C 1811.171875 1994.359375 1811.210938 2001.621094 1838.179688 2015.199219 C 1964.890625 2014.109375 2067.140625 1927.5 2168.851562 1863.019531 C 2209.589844 1832.480469 2255.871094 1807.609375 2291.679688 1771.390625 C 2299.359375 1741.808594 2278.628906 1699.210938 2246.601562 1694.160156 C 2255.160156 1655.859375 2215.519531 1625.710938 2194.261719 1598.089844 C 2181.949219 1586.578125 2164.480469 1582.96875 2148.109375 1584.21875 C 2173.660156 1546.941406 2113.429688 1524.660156 2093.03125 1500.820312 C 2028.371094 1450.929688 1966.058594 1392.589844 1889.679688 1361.671875 C 1884.519531 1360.730469 1879.25 1360.621094 1874.019531 1360.769531 Z M 2146.789062 1700.578125 C 2125.96875 1713.359375 2145.359375 1749.910156 2125.21875 1759.179688 C 2113.339844 1745.789062 2106.210938 1718.691406 2089.988281 1716.238281 C 2104.410156 1700.769531 2127.179688 1700.710938 2146.789062 1700.578125 Z M 1629.390625 1810.570312 C 1641.609375 1814.941406 1683.480469 1824.058594 1656.121094 1834.71875 C 1647.660156 1846.019531 1637.691406 1893.210938 1625.988281 1858.421875 C 1632.859375 1840.910156 1593.640625 1814.929688 1621.21875 1812.359375 C 1623.890625 1811.671875 1626.570312 1810.449219 1629.390625 1810.570312 Z M 1629.390625 1810.570312 "/>
<path fill-rule="nonzero" fill="rgb(74.021912%, 36.473083%, 35.301208%)" fill-opacity="1" d="M 2142.601562 1601.5 C 2118.609375 1601.871094 2097.410156 1609.160156 2078.71875 1618.691406 C 2051.539062 1632.550781 2029.679688 1651.191406 2024.890625 1661.859375 C 2020.109375 1672.519531 2032.378906 1675.179688 2053.171875 1677.578125 C 2073.949219 1679.96875 2103.238281 1682.109375 2106.699219 1688.5 C 2110.160156 1694.898438 2087.789062 1705.558594 2069.929688 1723.410156 C 2052.070312 1741.269531 2038.738281 1766.308594 2040.351562 1784.96875 C 2041.960938 1803.628906 2058.5 1815.890625 2088.878906 1821.480469 C 2119.25 1827.070312 2163.46875 1826.011719 2171.191406 1855.320312 C 2171.628906 1856.988281 2171.949219 1858.769531 2172.148438 1860.621094 C 2212.070312 1831.191406 2256.820312 1806.640625 2291.671875 1771.378906 C 2299.351562 1741.800781 2278.628906 1699.210938 2246.609375 1694.148438 C 2253.058594 1665.300781 2232.128906 1641.070312 2212.339844 1619.058594 C 2200.351562 1613.128906 2191.628906 1579.75 2180.25 1576.851562 C 2168.179688 1573.769531 2153.5 1601.320312 2142.601562 1601.5 Z M 2146.78125 1700.578125 C 2125.960938 1713.351562 2145.359375 1749.910156 2125.21875 1759.179688 C 2113.339844 1745.789062 2106.210938 1718.699219 2089.988281 1716.25 C 2104.410156 1700.769531 2127.171875 1700.710938 2146.78125 1700.578125 Z M 1631.359375 1722.238281 C 1629.210938 1722.21875 1627.058594 1722.269531 1624.910156 1722.359375 C 1590.519531 1723.691406 1555.359375 1737.558594 1537.769531 1744.480469 C 1521 1751.089844 1519.390625 1751.878906 1490.308594 1769.191406 C 1481.359375 1792.359375 1479.710938 1821.511719 1473.519531 1843.558594 C 1467.488281 1880.128906 1462.960938 1938.941406 1512.980469 1944.5 C 1603.109375 1966.589844 1691.578125 2002.609375 1784.148438 2011.230469 C 1801.230469 2000.589844 1807.539062 1999.601562 1816.660156 2003.710938 C 1816.539062 2003.46875 1816.359375 2003.238281 1816.230469 2003 C 1802.101562 1977.410156 1797.839844 1944.371094 1784.519531 1899.871094 C 1771.199219 1855.371094 1748.808594 1799.378906 1720.828125 1765.800781 C 1694.609375 1734.320312 1663.46875 1722.519531 1631.351562 1722.261719 Z M 1629.378906 1810.558594 C 1641.589844 1814.921875 1683.46875 1824.058594 1656.109375 1834.71875 C 1647.640625 1846.019531 1637.691406 1893.199219 1626 1858.410156 C 1632.859375 1840.910156 1593.640625 1814.929688 1621.230469 1812.371094 C 1623.890625 1811.671875 1626.570312 1810.429688 1629.378906 1810.550781 Z M 1629.378906 1810.558594 "/>
<path fill-rule="nonzero" fill="rgb(100%, 100%, 100%)" fill-opacity="1" d="M 1537.609375 1844.671875 C 1537.609375 1844.671875 1522.910156 1868.410156 1539.871094 1878.578125 C 1556.828125 1888.761719 1672.148438 1931.71875 1719.628906 1867.28125 L 1654.058594 1809.621094 L 1579.441406 1822.058594 Z M 1537.609375 1844.671875 "/>
<path fill-rule="nonzero" fill="rgb(42.358398%, 32.542419%, 32.542419%)" fill-opacity="1" d="M 1740.011719 1286.039062 C 1707.558594 1307.351562 1682.089844 1340.078125 1665.21875 1374.871094 C 1657.5 1399.78125 1687.460938 1419.820312 1708.691406 1406.75 C 1750.058594 1387.671875 1794.898438 1377.488281 1839.570312 1370.738281 C 1868.308594 1363.941406 1863.070312 1321.339844 1835.648438 1316.269531 C 1805.351562 1303.109375 1773.941406 1284.640625 1740.011719 1286.039062 Z M 1740.011719 1286.039062 "/>
<path fill-rule="nonzero" fill="rgb(62.693787%, 17.259216%, 17.259216%)" fill-opacity="1" d="M 1879.53125 879.839844 C 1680.25 888.621094 1499.300781 1006.859375 1373.640625 1156.160156 C 1321.851562 1223.128906 1264.289062 1298.261719 1271.019531 1387.910156 C 1264.199219 1522.75 1282.878906 1657.210938 1309.640625 1789.050781 C 1265.691406 1778.71875 1268.03125 1839.238281 1259.03125 1866.589844 C 1221.460938 2036.710938 1186.050781 2207.308594 1151.429688 2378.050781 C 1120 2343 1079.289062 2390.230469 1047.710938 2402.089844 C 923.671875 2477.160156 794.628906 2548.960938 688.679688 2649.011719 C 663.808594 2687.769531 713.65625 2722 731.824219 2752.109375 C 915.660156 2980.699219 1161.199219 3168.503906 1446.101562 3248.667969 C 1460.730469 3251.363281 1470.328125 3247.132812 1476.769531 3239.261719 C 1480.609375 3258.128906 1495.238281 3272.832031 1519.191406 3272.414062 C 1672.070312 3310.023438 1830.410156 3325.460938 1987.429688 3310.519531 C 2176.660156 3297.949219 2364.378906 3244.320312 2531.929688 3156.894531 C 2540.109375 3148.320312 2542.390625 3138.945312 2541.390625 3129.179688 C 2571.460938 3148.667969 2607.96875 3111.324219 2635.460938 3098.695312 C 2880.910156 2945.851562 3079.171875 2717.140625 3195.441406 2452.429688 C 3207.488281 2406.929688 3143.820312 2402.449219 3116.351562 2384.820312 C 3036.628906 2347.160156 2950.71875 2317.179688 2874.730469 2275.210938 C 2859.980469 2253.269531 2845.289062 2231.28125 2830.808594 2209.160156 C 2844.128906 2174.839844 2839.511719 2155.089844 2835 2141.550781 C 2834 2138.558594 2832.988281 2135.878906 2831.851562 2133.390625 C 2832.550781 2119.191406 2827.601562 2102.75 2820.390625 2092.058594 C 2743.929688 1930.21875 2648.480469 1778.289062 2559.03125 1623.480469 C 2561.269531 1448.941406 2512.109375 1270.449219 2398.128906 1135.480469 C 2273.550781 981.859375 2079.089844 878.878906 1879.53125 879.839844 Z M 1746.640625 1292.410156 C 1814.050781 1301.679688 1870.011719 1349.101562 1927.289062 1382.929688 C 2066.160156 1479.601562 2209.960938 1585.410156 2284.738281 1742.390625 C 2290.640625 1753.640625 2296.339844 1765.011719 2301.878906 1776.441406 C 2297.75 1775.949219 2293.671875 1775.058594 2289.71875 1774.839844 C 2284.871094 1774.589844 2280.21875 1775.359375 2275.839844 1779.269531 C 2166.070312 1860.261719 2052.980469 1942.019531 1929.019531 1998.691406 C 1797.28125 2032.390625 1665.640625 1980.371094 1538.621094 1943.609375 C 1501.230469 1934.949219 1494.859375 1979.28125 1502.300781 2005.828125 C 1504.378906 2064.261719 1530.058594 2117.558594 1555.570312 2168.921875 C 1541.808594 2167.800781 1533.421875 2172.089844 1528.339844 2179.5 C 1528.640625 2167.269531 1528.949219 2155.03125 1529.210938 2142.800781 C 1508.890625 2041.308594 1463.058594 1939.308594 1478.371094 1833.980469 C 1520.570312 1687.921875 1579.140625 1549.628906 1648.628906 1415.628906 C 1677.488281 1373.089844 1697.300781 1314.839844 1746.640625 1292.410156 Z M 2364.628906 1928.949219 C 2368.289062 1939.371094 2371.828125 1949.820312 2375.289062 1960.289062 C 2368.390625 1955.769531 2361.511719 1953.671875 2354.660156 1955.570312 C 2356.320312 1946.109375 2360 1937.359375 2364.628906 1928.949219 Z M 1783.359375 2759.652344 C 1790.398438 2760.320312 1797.53125 2760.863281 1804.839844 2761.25 C 1812.011719 2781.308594 1821.089844 2805.65625 1819.140625 2809.777344 C 1807.371094 2792.957031 1795.339844 2776.324219 1783.359375 2759.652344 Z M 2487.558594 2982.242188 C 2489.371094 3000.726562 2493.640625 3018.835938 2499.199219 3036.632812 C 2484.800781 3028.964844 2465.871094 3030.652344 2481.378906 3006.730469 C 2483.878906 2998.566406 2485.890625 2990.402344 2487.558594 2982.242188 Z M 2487.558594 2982.242188 "/>
<path fill-rule="nonzero" fill="rgb(79.296875%, 24.705505%, 24.705505%)" fill-opacity="1" d="M 1658.21875 934.871094 C 1548.289062 985 1450.589844 1064.730469 1373.640625 1156.160156 C 1321.851562 1223.128906 1264.289062 1298.261719 1271.019531 1387.910156 C 1266.578125 1475.679688 1273.050781 1563.269531 1285.410156 1650.109375 C 1307.601562 1610.269531 1317.808594 1548.230469 1332.609375 1485.53125 C 1348.429688 1418.441406 1369.519531 1350.601562 1432.828125 1248.089844 C 1496.140625 1145.578125 1601.671875 1008.421875 1654.429688 939.828125 C 1656.070312 937.699219 1656.679688 936.871094 1658.21875 934.871094 Z M 1254.628906 1886.738281 C 1218.710938 2050.179688 1184.679688 2214.050781 1151.429688 2378.050781 C 1120 2343 1079.289062 2390.230469 1047.710938 2402.089844 C 923.671875 2477.160156 794.628906 2548.960938 688.679688 2649.011719 C 673.03125 2673.398438 686.96875 2696 703.976562 2716.910156 C 752.050781 2685.601562 806.066406 2637.929688 857.203125 2592.570312 C 950.464844 2509.828125 1034.871094 2434.441406 1083.871094 2399.019531 C 1132.878906 2363.601562 1146.441406 2368.121094 1147.929688 2398.28125 C 1149.429688 2428.429688 1138.878906 2484.210938 1135.859375 2524.160156 C 1132.851562 2564.109375 1137.390625 2588.230469 1152.460938 2627.421875 C 1167.539062 2666.621094 1193.171875 2720.871094 1205.230469 2695.238281 C 1217.289062 2669.609375 1215.761719 2564.121094 1228.570312 2414.878906 C 1241.378906 2265.640625 1319.691406 1880.808594 1312.910156 1757.949219 C 1311.621094 1734.460938 1257.890625 1905.449219 1254.628906 1886.738281 Z M 1254.628906 1886.738281 "/>
<path fill-rule="nonzero" fill="rgb(48.631287%, 13.330078%, 13.330078%)" fill-opacity="1" d="M 2241.46875 1814.679688 C 2243.609375 1827.210938 2274.519531 1835.738281 2298.238281 1845.871094 C 2321.960938 1856 2338.480469 1867.71875 2338.738281 1857.871094 C 2338.988281 1848.011719 2323.019531 1816.570312 2312.628906 1798.179688 C 2302.230469 1779.789062 2297.441406 1774.460938 2281.710938 1780.050781 C 2265.980469 1785.640625 2239.339844 1802.160156 2241.46875 1814.679688 Z M 2241.46875 1814.679688 "/>
<path fill-rule="nonzero" fill="rgb(48.631287%, 13.330078%, 13.330078%)" fill-opacity="1" d="M 2572.378906 1646.398438 C 2572.808594 1651.71875 2576.210938 1660.410156 2581.519531 1673.960938 C 2596.601562 1712.398438 2626.730469 1789.289062 2632.769531 1823.960938 C 2638.800781 1858.621094 2620.71875 1851.078125 2639.558594 1898.570312 C 2658.398438 1946.058594 2714.160156 2048.558594 2765.421875 2126.941406 C 2799.371094 2178.871094 2831.261719 2220.011719 2859.488281 2252.300781 C 2849.890625 2237.941406 2840.261719 2223.609375 2830.808594 2209.160156 C 2844.128906 2174.839844 2839.511719 2155.089844 2835 2141.550781 C 2834 2138.558594 2832.988281 2135.878906 2831.851562 2133.390625 C 2832.550781 2119.191406 2827.601562 2102.75 2820.390625 2092.058594 C 2747.710938 1938.21875 2657.910156 1793.308594 2572.378906 1646.398438 Z M 2885.679688 2280.96875 C 2890.46875 2285.941406 2895.109375 2290.628906 2899.589844 2295.019531 C 2935.769531 2330.441406 2961.410156 2347.03125 2973.460938 2386.980469 C 2985.511719 2426.929688 2984 2490.25 2961.390625 2606.320312 C 2946.210938 2684.25 2921.550781 2785.910156 2922.238281 2863.5 C 3035.738281 2743.179688 3129 2603.699219 3195.441406 2452.429688 C 3207.488281 2406.929688 3143.820312 2402.449219 3116.351562 2384.820312 C 3040.398438 2348.941406 2958.941406 2319.910156 2885.679688 2280.96875 Z M 2885.679688 2280.96875 "/>
<path fill-rule="nonzero" fill="rgb(48.631287%, 13.330078%, 13.330078%)" fill-opacity="1" d="M 2366.789062 1956.179688 C 2364.789062 1958.328125 2363.371094 1965.128906 2361.589844 1974.96875 C 2356.480469 2003.339844 2348.410156 2056.851562 2327.03125 2190.628906 C 2305.648438 2324.421875 2270.980469 2538.480469 2253.640625 2669.628906 C 2236.308594 2800.78125 2236.320312 2849.015625 2239.328125 2908.558594 C 2242.339844 2968.105469 2248.359375 3038.941406 2259.660156 3032.152344 C 2270.96875 3025.367188 2287.539062 2940.964844 2305.628906 2864.085938 C 2323.71875 2787.203125 2343.328125 2717.871094 2365.191406 2672.640625 C 2387.050781 2627.421875 2411.171875 2606.289062 2430.769531 2637.199219 C 2450.371094 2668.109375 2465.429688 2751.03125 2479.75 2810.574219 C 2494.070312 2870.121094 2507.660156 2906.292969 2509.910156 2931.15625 C 2512.179688 2956.023438 2503.128906 2969.59375 2512.929688 3020.855469 C 2518.679688 3050.90625 2530.929688 3093.875 2548.109375 3132.511719 C 2572.839844 3141.777344 2600.96875 3118.59375 2624.589844 3104.53125 C 2619.429688 3092.726562 2614.519531 3079.730469 2610.171875 3065.332031 C 2583.03125 2975.636719 2576.988281 2832.445312 2561.429688 2698.890625 C 2545.871094 2565.339844 2520.789062 2441.441406 2487.449219 2316.601562 C 2454.121094 2191.761719 2412.550781 2065.980469 2390.699219 2004.679688 C 2381.238281 1978.171875 2375.46875 1963.769531 2371.558594 1958.210938 C 2369.96875 1957.378906 2368.378906 1956.710938 2366.789062 1956.179688 Z M 2366.789062 1956.179688 "/>
<path fill-rule="nonzero" fill="rgb(48.631287%, 13.330078%, 13.330078%)" fill-opacity="1" d="M 1571.660156 2203.289062 C 1568.890625 2202.878906 1570.28125 2220.441406 1575.261719 2282.890625 C 1582.191406 2369.769531 1596.050781 2543.53125 1596.050781 2676.78125 C 1596.050781 2810.015625 1582.191406 2902.722656 1568.871094 2999.191406 C 1555.539062 3095.65625 1542.738281 3195.851562 1556.070312 3266.203125 C 1557.089844 3271.558594 1558.28125 3276.726562 1559.589844 3281.738281 C 1653.058594 3302.195312 1748.308594 3314.203125 1843.839844 3315.902344 C 1860.378906 3255.453125 1859.539062 3169.828125 1852.929688 3087.6875 C 1844.550781 2983.410156 1826.859375 2884.789062 1799.929688 2782.726562 C 1794.410156 2775.027344 1788.878906 2767.347656 1783.351562 2759.652344 C 1786.871094 2759.984375 1790.390625 2760.289062 1793.960938 2760.558594 C 1766.808594 2661.960938 1731.839844 2561.410156 1702.101562 2482.78125 C 1670.660156 2399.640625 1645.070312 2341.011719 1623.761719 2297.308594 C 1602.441406 2253.609375 1585.390625 2224.800781 1576.859375 2210.410156 C 1574.460938 2206.359375 1572.75 2203.449219 1571.660156 2203.289062 Z M 1571.660156 2203.289062 "/>
<path fill-rule="nonzero" fill="rgb(100%, 100%, 100%)" fill-opacity="1" d="M 2010.421875 1781.691406 C 2010.421875 1781.691406 2015.21875 1808.871094 2040.800781 1812.070312 C 2066.378906 1815.269531 2218.28125 1764.109375 2187.898438 1724.128906 C 2157.519531 1684.160156 2082.371094 1700.148438 2082.371094 1700.148438 Z M 2010.421875 1781.691406 "/>
<path fill-rule="nonzero" fill="rgb(48.631287%, 13.330078%, 13.330078%)" fill-opacity="1" d="M 1128.878906 2429.988281 C 1111.480469 2430.070312 1073 2475.140625 1019.039062 2533.191406 C 959.492188 2597.261719 881.117188 2677.160156 814.035156 2747.261719 C 797.960938 2764.054688 782.578125 2780.269531 768.464844 2796.160156 C 947.761719 3004.660156 1179.730469 3173.714844 1446.101562 3248.667969 C 1487.460938 3256.285156 1488.988281 3209.84375 1490.761719 3179.089844 C 1490.800781 3177.347656 1490.820312 3175.554688 1490.890625 3173.867188 C 1491.640625 3123.371094 1488.628906 3100.753906 1471.300781 3100.746094 C 1453.960938 3100.738281 1422.300781 3123.363281 1389.890625 3099.253906 C 1357.480469 3075.144531 1324.320312 3004.296875 1288.148438 2936.460938 C 1251.96875 2868.625 1212.78125 2803.785156 1184.890625 2745 C 1157 2686.199219 1140.410156 2633.449219 1138.140625 2572.390625 C 1135.878906 2511.339844 1147.929688 2442.011719 1133.621094 2431.449219 C 1132.269531 2430.460938 1130.699219 2429.980469 1128.898438 2429.988281 Z M 1128.878906 2429.988281 "/>
<path fill-rule="nonzero" fill="rgb(48.631287%, 13.330078%, 13.330078%)" fill-opacity="1" d="M 1528.890625 1942.519531 C 1500.140625 1943.109375 1495.558594 1981.769531 1502.300781 2005.828125 C 1502.429688 2010.039062 1502.730469 2014.21875 1503.148438 2018.378906 C 1512.21875 2045.46875 1524.160156 2075.601562 1535.820312 2092.089844 C 1551.289062 2113.929688 1566.199219 2111.800781 1587.519531 2129.398438 C 1608.839844 2146.988281 1636.558594 2184.320312 1680.261719 2255.730469 C 1723.960938 2327.148438 1783.660156 2432.679688 1814.558594 2426.820312 C 1845.46875 2420.949219 1847.609375 2303.699219 1845.480469 2215.230469 C 1843.359375 2127.230469 1837 2067.710938 1807.050781 2008.339844 C 1716.359375 2001.679688 1626.390625 1969.011719 1538.621094 1943.609375 C 1535.121094 1942.800781 1531.871094 1942.449219 1528.898438 1942.519531 Z M 1528.890625 1942.519531 "/>
<path fill-rule="nonzero" fill="rgb(18.431091%, 5.099487%, 5.099487%)" fill-opacity="1" d="M 1887.710938 867.640625 C 1882.078125 867.691406 1876.480469 867.820312 1870.890625 868.070312 L 1870.871094 868.070312 C 1736.710938 873.628906 1615.398438 930.121094 1517.589844 1002.589844 C 1387.191406 1099.210938 1297.480469 1222.75 1269.710938 1302.570312 C 1241.269531 1384.328125 1254.421875 1522.871094 1272.140625 1644.460938 C 1275.121094 1664.941406 1278.289062 1684.550781 1281.488281 1703.570312 C 1279.679688 1711.949219 1236.769531 1909.660156 1192.730469 2117.890625 C 1177.328125 2190.71875 1162.050781 2263.679688 1148.441406 2329.769531 C 1143.488281 2332.480469 1030.429688 2394.519531 912.578125 2468.371094 C 852.339844 2506.121094 791.3125 2546.699219 743.121094 2583.910156 C 719.027344 2602.519531 698.117188 2620.210938 681.964844 2636.730469 C 665.816406 2653.25 653.851562 2667.890625 648.976562 2684.960938 C 646.210938 2694.578125 651.789062 2704.609375 661.417969 2707.320312 C 671.03125 2710.089844 681.0625 2704.5 683.777344 2694.871094 C 685.292969 2689.558594 693.5625 2676.601562 707.839844 2661.988281 C 722.121094 2647.390625 741.863281 2630.421875 765.132812 2612.449219 C 811.675781 2576.519531 872.113281 2536.359375 931.789062 2498.960938 C 1015.789062 2446.320312 1097.390625 2399.691406 1138.898438 2376.378906 C 1136.179688 2389.761719 1133.351562 2403.628906 1130.851562 2416.058594 C 1122.410156 2458.078125 1115.390625 2494.070312 1110.441406 2521.179688 C 1107.960938 2534.738281 1105.980469 2546.121094 1104.628906 2554.921875 C 1103.269531 2563.71875 1102.441406 2569.03125 1102.441406 2574.851562 C 1102.441406 2585.609375 1105.488281 2594.980469 1109.929688 2607.839844 C 1114.378906 2620.699219 1120.539062 2635.910156 1127.839844 2652.800781 C 1142.449219 2686.578125 1161.738281 2727.019531 1181 2765.945312 C 1219.53125 2843.800781 1257.988281 2915.921875 1257.988281 2915.921875 C 1262.699219 2924.691406 1273.621094 2927.996094 1282.398438 2923.304688 C 1291.21875 2918.640625 1294.589844 2907.707031 1289.910156 2898.894531 C 1289.910156 2898.894531 1251.628906 2827.085938 1213.410156 2749.851562 C 1194.300781 2711.230469 1175.238281 2671.308594 1161.070312 2638.539062 C 1153.980469 2622.160156 1148.101562 2607.570312 1144.148438 2596.121094 C 1140.191406 2584.671875 1138.46875 2575.289062 1138.46875 2574.851562 C 1138.46875 2575.070312 1139.03125 2568.609375 1140.289062 2560.359375 C 1141.558594 2552.109375 1143.519531 2541.078125 1145.960938 2527.710938 C 1150.839844 2500.980469 1157.851562 2464.96875 1166.269531 2423.070312 C 1183.109375 2339.25 1205.558594 2231.660156 1228.039062 2125.378906 C 1257.410156 1986.511719 1281.628906 1873.96875 1298.46875 1796.03125 C 1307.308594 1840.390625 1313.949219 1869.03125 1313.949219 1869.03125 C 1316.230469 1878.691406 1325.910156 1884.699219 1335.589844 1882.460938 C 1345.300781 1880.21875 1351.359375 1870.53125 1349.128906 1860.820312 C 1349.128906 1860.820312 1333.441406 1793.539062 1318.191406 1704.339844 C 1318.679688 1700.738281 1318.058594 1697.078125 1316.410156 1693.839844 C 1313.460938 1676.21875 1310.550781 1658.109375 1307.800781 1639.269531 C 1290.339844 1519.429688 1281.078125 1379.738281 1303.800781 1314.398438 C 1327.199219 1247.121094 1414.25 1124.019531 1539 1031.578125 C 1663.75 939.148438 1825.019531 875.910156 2000.941406 916.039062 C 2357.050781 997.25 2547.511719 1309.058594 2535.019531 1627.539062 L 2537.691406 1637.828125 C 2537.691406 1637.828125 2605.140625 1746.441406 2673.890625 1866.121094 C 2708.261719 1925.960938 2742.949219 1988.558594 2769.609375 2041.390625 C 2796.269531 2094.210938 2814.691406 2139.871094 2816.609375 2154.980469 L 2818.449219 2169.460938 C 2796.390625 2134.769531 2771.730469 2095.019531 2747.488281 2055.398438 C 2682.03125 1948.429688 2619.738281 1842.941406 2619.738281 1842.941406 C 2617.300781 1838.851562 2613.339844 1835.890625 2608.730469 1834.699219 C 2604.109375 1833.519531 2599.199219 1834.21875 2595.089844 1836.640625 C 2586.53125 1841.691406 2583.648438 1852.710938 2588.660156 1861.300781 C 2588.660156 1861.300781 2651.140625 1966.960938 2716.789062 2074.238281 C 2749.609375 2127.878906 2783.160156 2181.871094 2810.320312 2223.519531 C 2823.910156 2244.351562 2835.910156 2262.03125 2845.5 2275.25 C 2850.300781 2281.851562 2854.441406 2287.289062 2858.179688 2291.691406 C 2861.929688 2296.089844 2863.289062 2299.21875 2871.140625 2303.148438 C 2879.140625 2307.148438 2901.421875 2317.160156 2932.640625 2330.96875 C 2963.859375 2344.78125 3003.160156 2361.898438 3041.550781 2378.691406 C 3118.320312 2412.28125 3191.769531 2444.328125 3191.769531 2444.328125 C 3200.949219 2448.339844 3211.640625 2444.109375 3215.589844 2434.890625 C 3219.511719 2425.75 3215.28125 2415.148438 3206.160156 2411.199219 C 3206.160156 2411.199219 3132.640625 2379.140625 3055.910156 2345.570312 C 3017.550781 2328.789062 2978.410156 2311.621094 2947.269531 2297.839844 C 2918.609375 2285.171875 2896.699219 2275.339844 2889.550781 2271.941406 L 2889.519531 2271.941406 C 2889.339844 2271.710938 2887.308594 2270.320312 2885.628906 2268.339844 C 2882.910156 2265.148438 2879.101562 2260.25 2874.628906 2254.089844 C 2871.308594 2249.53125 2867.53125 2244.078125 2863.511719 2238.230469 L 2852.398438 2150.398438 C 2848.671875 2121.101562 2829.039062 2079.019531 2801.878906 2025.179688 C 2774.710938 1971.351562 2739.761719 1908.398438 2705.199219 1848.238281 C 2637.058594 1729.621094 2572.179688 1625.03125 2570.308594 1622 C 2580.261719 1290.589844 2379.230469 965.339844 2008.910156 880.890625 C 1967.648438 871.480469 1927.148438 867.300781 1887.71875 867.640625 Z M 1747.269531 1266.511719 C 1745.378906 1266.550781 1743.46875 1266.691406 1741.570312 1266.878906 C 1723.199219 1269.039062 1710.371094 1281.109375 1696.589844 1296.589844 C 1682.808594 1312.070312 1668.640625 1332.519531 1653.921875 1356.789062 C 1624.480469 1405.320312 1593.078125 1468.96875 1563.769531 1534.691406 C 1534.46875 1600.410156 1507.339844 1668.109375 1486.890625 1724.449219 C 1466.449219 1780.800781 1452.660156 1823.628906 1449.800781 1847.960938 C 1444.480469 1893.128906 1459.128906 1963.390625 1473.96875 2025.628906 C 1487.789062 2083.570312 1502.078125 2131.238281 1504.058594 2137.789062 C 1504.789062 2147.019531 1505.28125 2154.378906 1505.28125 2157.480469 C 1505.28125 2180.171875 1484.589844 3090.933594 1458.988281 3244.511719 C 1457.351562 3254.359375 1464.011719 3263.675781 1473.859375 3265.296875 C 1483.710938 3266.941406 1493.019531 3260.277344 1494.648438 3250.425781 C 1522.550781 3082.996094 1540.289062 2248.28125 1541.230469 2168.359375 C 1574.109375 2235.601562 1619.398438 2327.390625 1646.328125 2378.550781 C 1666.910156 2417.660156 1717.691406 2551.75 1759.449219 2668.011719 C 1769.410156 2695.71875 1775.761719 2714.691406 1784.339844 2739.179688 C 1772.378906 2722.589844 1761.53125 2707.058594 1749.160156 2690.230469 C 1700.441406 2623.949219 1654.058594 2562.75 1654.058594 2562.75 C 1648 2554.769531 1636.601562 2553.25 1628.660156 2559.359375 C 1620.761719 2565.410156 1619.25 2576.710938 1625.28125 2584.621094 C 1625.28125 2584.621094 1671.519531 2645.519531 1720.039062 2711.519531 C 1744.289062 2744.519531 1769.148438 2778.847656 1788.921875 2807.242188 C 1808.691406 2835.636719 1824.058594 2860.136719 1826.660156 2865.976562 C 1827.359375 2867.550781 1827.320312 2868.046875 1829.429688 2871.171875 C 1829.679688 2871.5625 1829.980469 2871.988281 1830.519531 2872.609375 C 1831.019531 2873.234375 1833.039062 2875.152344 1833.058594 2875.167969 C 1833.070312 2875.183594 1841.378906 2879.03125 1841.390625 2879.03125 C 1841.410156 2879.035156 1857.820312 2873.472656 1857.839844 2873.464844 C 1857.851562 2873.453125 1862.171875 2865.039062 1862.179688 2865.015625 C 1862.179688 2864.992188 1862.679688 2862.082031 1862.679688 2861.257812 C 1862.691406 2859.609375 1862.550781 2858.898438 1862.429688 2858.246094 C 1861.699219 2853.039062 1861 2852.015625 1859.660156 2847.613281 C 1856.96875 2838.808594 1852.300781 2824.441406 1845.980469 2805.777344 C 1833.351562 2768.453125 1814.359375 2714.121094 1793.410156 2655.800781 C 1751.511719 2539.160156 1702.878906 2408.558594 1678.230469 2361.738281 C 1633.769531 2277.261719 1535.628906 2074.339844 1534.25 2071.519531 C 1533.058594 2060.160156 1531.820312 2048.519531 1530.550781 2036.871094 C 1527.078125 2004.980469 1524.191406 1979.710938 1522.128906 1961.910156 C 1551.578125 1972.371094 1593.410156 1986.5 1640.050781 1999.78125 C 1728.339844 2024.929688 1831.109375 2048.070312 1901.21875 2032.769531 C 1970.589844 2017.640625 2069.339844 1955.308594 2154.429688 1896.679688 C 2217.96875 1852.898438 2272.660156 1811.078125 2296.339844 1792.671875 C 2322.109375 1845.058594 2342.589844 1893.21875 2350.460938 1918.800781 C 2350.890625 1920.199219 2352.53125 1925.460938 2353.148438 1927.460938 C 2351.160156 1939.519531 2320.570312 2124.980469 2288.820312 2321.5 C 2272.429688 2422.988281 2256.039062 2525.53125 2243.730469 2604.660156 C 2237.578125 2644.230469 2232.46875 2677.898438 2228.859375 2702.808594 C 2227.058594 2715.269531 2225.640625 2725.519531 2224.648438 2733.269531 C 2223.671875 2741.019531 2223.078125 2744.988281 2223.078125 2750.082031 C 2223.078125 2767.628906 2225.300781 2824.332031 2227.558594 2878.074219 C 2229.820312 2931.8125 2232.140625 2981.519531 2232.140625 2981.519531 C 2232.640625 2991.457031 2241.050781 2999.128906 2250.980469 2998.683594 C 2260.929688 2998.203125 2268.609375 2989.761719 2268.140625 2979.816406 C 2268.140625 2979.816406 2265.929688 2930.167969 2263.671875 2876.5 C 2261.410156 2822.835938 2259.078125 2764.191406 2259.078125 2750.082031 C 2259.078125 2751.21875 2259.460938 2745.238281 2260.410156 2737.851562 C 2261.359375 2730.460938 2262.859375 2720.339844 2264.648438 2708 C 2268.21875 2683.328125 2273.25 2649.601562 2279.390625 2610.101562 C 2291.671875 2531.101562 2308.089844 2428.761719 2324.480469 2327.308594 C 2334.589844 2264.75 2344.320312 2205 2353.46875 2148.898438 C 2362.179688 2198.730469 2373.140625 2261.890625 2384.441406 2329.121094 C 2408.71875 2473.710938 2433.609375 2633.058594 2435.679688 2678.53125 C 2438.058594 2730.980469 2452.078125 2783.984375 2463.949219 2829.226562 C 2475.828125 2874.472656 2483.949219 2913.722656 2481.21875 2927.371094 C 2477.289062 2947.035156 2461.300781 2997.800781 2446.660156 3041.71875 C 2432.019531 3085.636719 2418.519531 3123.902344 2418.519531 3123.902344 C 2415.160156 3133.304688 2420.089844 3143.648438 2429.5 3146.980469 C 2438.921875 3150.347656 2449.28125 3145.410156 2452.601562 3135.972656 C 2452.601562 3135.972656 2466.230469 3097.339844 2480.980469 3053.070312 C 2482.929688 3047.226562 2484.859375 3041.261719 2486.820312 3035.324219 L 2536.089844 3172.242188 C 2539.460938 3181.683594 2549.890625 3186.566406 2559.300781 3183.113281 C 2568.628906 3179.695312 2573.441406 3169.378906 2570.070312 3160.035156 L 2504.828125 2978.617188 C 2510.070312 2961.109375 2514.320312 2945.578125 2516.53125 2934.515625 C 2522.839844 2902.941406 2510.621094 2865.261719 2498.75 2820.058594 C 2486.890625 2774.859375 2473.820312 2723.871094 2471.679688 2676.828125 C 2469.230469 2622.808594 2444.289062 2467.910156 2419.960938 2323.070312 C 2395.628906 2178.238281 2371.96875 2045.929688 2371.96875 2045.929688 C 2371.71875 2044.808594 2371.320312 2043.710938 2370.839844 2042.660156 C 2374.421875 2020.859375 2374.390625 2021 2377.050781 2004.820312 C 2399.28125 2077.121094 2431.121094 2182.660156 2463.339844 2299.730469 C 2514.101562 2484.171875 2562.199219 2688.128906 2562.199219 2781.742188 C 2562.21875 2791.679688 2570.28125 2799.734375 2580.21875 2799.753906 C 2590.199219 2799.792969 2598.320312 2791.722656 2598.339844 2781.742188 C 2598.339844 2676.371094 2549.128906 2475.449219 2498.140625 2290.191406 C 2451.769531 2121.71875 2405.21875 1972.988281 2390.191406 1924.769531 C 2390.859375 1919.570312 2389.238281 1914.339844 2385.738281 1910.429688 C 2385.621094 1910.058594 2385.121094 1908.519531 2385.019531 1908.160156 C 2365.558594 1844.898438 2294.039062 1693.238281 2228.519531 1604.320312 C 2193 1556.121094 2095.410156 1473.21875 1994.519531 1399.691406 C 1944.078125 1362.929688 1893.269531 1329.070312 1849.5 1304.691406 C 1827.621094 1292.5 1807.46875 1282.75 1789.679688 1276.039062 C 1774.109375 1270.171875 1760.609375 1266.191406 1747.28125 1266.480469 Z M 1747.640625 1302.71875 C 1752.820312 1302.839844 1763.640625 1304.78125 1776.960938 1309.808594 C 1792.179688 1315.550781 1810.980469 1324.640625 1831.851562 1336.269531 C 1837.601562 1339.46875 1843.53125 1342.890625 1849.570312 1346.449219 C 1836.5 1346.511719 1823.53125 1347.558594 1810.800781 1349.328125 C 1757.46875 1356.730469 1708.460938 1377.089844 1673.160156 1395.300781 C 1677.070312 1388.441406 1680.949219 1381.828125 1684.75 1375.550781 C 1698.789062 1352.410156 1712.191406 1333.308594 1723.558594 1320.550781 C 1734.910156 1307.789062 1744.929688 1302.898438 1745.78125 1302.800781 C 1746.269531 1302.738281 1746.910156 1302.679688 1747.640625 1302.738281 Z M 1853.730469 1383.199219 C 1872.160156 1383.140625 1890.480469 1385.261719 1908.089844 1390.421875 L 1909.820312 1384.53125 C 1930.601562 1398.410156 1951.941406 1413.320312 1973.25 1428.839844 C 2038.308594 1476.269531 2103.199219 1529.839844 2148.089844 1571.808594 C 2114.449219 1566.058594 2080.320312 1583.929688 2052.898438 1601.070312 C 2021.808594 1620.5 1998.140625 1642.398438 1998.140625 1642.398438 C 1990.828125 1649.179688 1990.398438 1660.601562 1997.179688 1667.898438 C 2003.949219 1675.210938 2015.371094 1675.660156 2022.679688 1668.890625 C 2022.679688 1668.890625 2044.28125 1648.96875 2071.980469 1631.660156 C 2099.679688 1614.351562 2132.429688 1603.140625 2148.859375 1609.300781 C 2158.210938 1612.769531 2168.609375 1608 2172.070312 1598.640625 C 2172.378906 1597.738281 2172.691406 1596.808594 2172.839844 1595.871094 C 2184.351562 1607.570312 2193.539062 1617.78125 2199.378906 1625.71875 C 2225.75 1661.5 2254.359375 1710.871094 2279.730469 1759.78125 C 2264.238281 1771.960938 2206.191406 1817.148438 2133.878906 1866.960938 C 2049.949219 1924.78125 1948.601562 1985.621094 1893.601562 1997.621094 C 1876.421875 2001.359375 1854.359375 2001.941406 1829.480469 2000.199219 C 1829.421875 1994.371094 1829.300781 1986.089844 1828.929688 1977.308594 C 1828.621094 1969.199219 1828.140625 1960.769531 1827.460938 1953.378906 C 1826.769531 1946 1827.769531 1941.71875 1823.121094 1932.460938 C 1820.929688 1928.210938 1817.160156 1925 1812.621094 1923.53125 L 1812.589844 1923.53125 C 1808.058594 1922.019531 1803.089844 1922.359375 1798.808594 1924.5 C 1789.910156 1928.941406 1786.289062 1939.75 1790.710938 1948.660156 C 1788.339844 1943.929688 1790.960938 1950.449219 1791.570312 1956.628906 C 1792.121094 1962.808594 1792.621094 1970.800781 1792.890625 1978.511719 C 1793.140625 1984.980469 1793.269531 1991.210938 1793.328125 1996.339844 C 1747.46875 1990.070312 1696.328125 1978.320312 1649.941406 1965.109375 C 1563.558594 1940.511719 1492.441406 1912.53125 1492.441406 1912.53125 C 1491.28125 1912.109375 1490.070312 1911.808594 1488.851562 1911.621094 C 1485.589844 1887.148438 1484.078125 1865.851562 1485.679688 1852.230469 C 1487.140625 1839.851562 1497.640625 1802.960938 1513.800781 1756.640625 C 1519.808594 1762.628906 1529.179688 1763.628906 1536.308594 1759.03125 C 1536.308594 1759.03125 1615.949219 1709.929688 1674.71875 1749.730469 C 1682.96875 1755.269531 1694.140625 1753.109375 1699.71875 1744.890625 C 1705.300781 1736.671875 1703.191406 1725.480469 1695 1719.859375 C 1674.648438 1706.070312 1653.300781 1699.769531 1632.78125 1698.011719 C 1586.109375 1694.011719 1543.601562 1713.71875 1525.761719 1723.488281 C 1545.25 1670.78125 1570.089844 1609.269531 1596.75 1549.480469 C 1611.039062 1517.441406 1625.820312 1485.929688 1640.511719 1456.660156 C 1655.019531 1447.191406 1755.871094 1383.679688 1853.71875 1383.191406 Z M 2100.339844 1674.738281 C 2092.578125 1672.308594 2084.289062 1675.710938 2076.761719 1677.859375 C 2063.558594 1681.628906 2053.371094 1689.859375 2043.269531 1699.261719 C 2033.160156 1708.660156 2023.53125 1719.730469 2014.988281 1730.328125 C 1997.910156 1751.53125 1985.140625 1771.421875 1985.140625 1771.421875 C 1979.769531 1779.761719 1982.140625 1790.878906 1990.449219 1796.308594 C 1998.820312 1801.769531 2010.050781 1799.378906 2015.46875 1790.980469 C 2015.46875 1790.980469 2027.449219 1772.429688 2043.160156 1752.929688 C 2048.671875 1746.089844 2054.628906 1739.191406 2060.511719 1733.070312 C 2060.320312 1735.160156 2060.199219 1737.261719 2060.199219 1739.359375 C 2060.199219 1766.21875 2075.898438 1787.980469 2095.269531 1787.96875 C 2114.621094 1787.960938 2130.308594 1766.210938 2130.308594 1739.359375 C 2130.308594 1730.359375 2128.519531 1721.53125 2125.109375 1713.859375 C 2132.601562 1714.789062 2140.320312 1716.03125 2147.570312 1717.511719 C 2171.570312 1722.421875 2191.808594 1728.378906 2191.808594 1728.378906 C 2201.390625 1731.25 2211.480469 1725.78125 2214.300781 1716.179688 C 2217.089844 1706.640625 2211.628906 1696.640625 2202.101562 1693.820312 C 2202.101562 1693.820312 2180.609375 1687.371094 2154.851562 1682.101562 C 2137.140625 1678.480469 2117.441406 1680.078125 2100.359375 1674.738281 Z M 1630.609375 1786.839844 C 1604.421875 1786.839844 1579.28125 1801.949219 1556.628906 1815.480469 C 1533.980469 1829.019531 1515.78125 1842.429688 1515.78125 1842.429688 C 1507.769531 1848.371094 1506.101562 1859.679688 1512.050781 1867.691406 C 1517.980469 1875.710938 1529.300781 1877.390625 1537.308594 1871.441406 C 1537.308594 1871.441406 1554.25 1858.890625 1575.128906 1846.421875 C 1583.929688 1841.160156 1593.808594 1836.179688 1602.871094 1832.160156 C 1601 1838.199219 1600.039062 1844.699219 1600.039062 1851.269531 C 1600.039062 1878.140625 1615.738281 1899.921875 1635.109375 1899.898438 C 1654.46875 1899.898438 1670.160156 1878.121094 1670.160156 1851.269531 C 1670.160156 1847.730469 1669.910156 1844.199219 1669.328125 1840.75 C 1672.210938 1842.609375 1675.050781 1844.558594 1677.75 1846.558594 C 1695.058594 1859.328125 1708.589844 1872.160156 1708.589844 1872.160156 C 1715.761719 1879.050781 1727.160156 1878.820312 1734.058594 1871.671875 C 1740.960938 1864.488281 1740.738281 1853.070312 1733.570312 1846.171875 C 1733.570312 1846.171875 1718.679688 1831.871094 1699.238281 1817.519531 C 1679.808594 1803.160156 1657.179688 1786.820312 1630.601562 1786.820312 Z M 1630.609375 1786.839844 "/>
<path fill-rule="nonzero" fill="rgb(48.631287%, 13.330078%, 13.330078%)" fill-opacity="1" d="M 2228.769531 1358.148438 C 2201.640625 1337.050781 2144.359375 1255.648438 2072.761719 1200.621094 C 2001.160156 1145.589844 1915.238281 1116.949219 1839.859375 1113.929688 C 1764.480469 1110.921875 1699.660156 1133.53125 1675.539062 1132.019531 C 1651.421875 1130.519531 1668 1104.890625 1721.519531 1083.03125 C 1775.039062 1061.171875 1865.488281 1043.078125 1936.339844 1046.859375 C 2007.191406 1050.628906 2058.449219 1076.25 2107.429688 1122.238281 C 2156.429688 1168.21875 2203.148438 1234.539062 2228.019531 1287.308594 C 2252.890625 1340.070312 2255.910156 1379.261719 2228.78125 1358.148438 Z M 2228.769531 1358.148438 "/>
<path fill-rule="nonzero" fill="rgb(18.431091%, 5.099487%, 5.099487%)" fill-opacity="1" d="M 1875 375 C 1047.171875 375 375 1047.160156 375 1875 C 375 2702.828125 1047.171875 3375 1875 3375 C 2702.839844 3375 3375 2702.828125 3375 1875 C 3375 1047.160156 2702.839844 375 1875 375 Z M 1875 478.089844 C 2647.101562 478.089844 3271.910156 1102.898438 3271.910156 1875 C 3271.910156 2647.101562 2647.101562 3271.90625 1875 3271.90625 C 1102.898438 3271.90625 478.09375 2647.101562 478.09375 1875 C 478.09375 1102.898438 1102.898438 478.089844 1875 478.089844 Z M 1875 478.089844 "/>
<path fill-rule="nonzero" fill="rgb(79.296875%, 24.705505%, 24.705505%)" fill-opacity="1" d="M 2606.550781 2283.96875 C 2591.621094 2305.820312 2617.199219 2444.390625 2636.390625 2563.78125 C 2655.578125 2683.160156 2668.371094 2783.355469 2683.289062 2761.5 C 2698.210938 2739.648438 2715.269531 2595.75 2696.078125 2476.371094 C 2676.898438 2356.980469 2621.480469 2262.121094 2606.550781 2283.96875 Z M 2606.550781 2283.96875 "/>
</svg>
